<?xml version="1.0" standalone="no"?>
<!DOCTYPE svg PUBLIC "-//W3C//DTD SVG 20010904//EN"
 "http://www.w3.org/TR/2001/REC-SVG-20010904/DTD/svg10.dtd">
<svg version="1.0" xmlns="http://www.w3.org/2000/svg"
 width="512.000000pt" height="512.000000pt" viewBox="0 0 512.000000 512.000000"
 preserveAspectRatio="xMidYMid meet">

<g transform="translate(0.000000,512.000000) scale(0.100000,-0.100000)"
fill="#000000" stroke="none">
<path d="M2042 4899 c-137 -20 -288 -101 -383 -207 -28 -32 -69 -95 -92 -144
l-42 -86 -68 -16 c-374 -86 -678 -385 -785 -774 l-27 -97 0 -1230 0 -1230 27
-100 c93 -337 348 -620 662 -733 187 -68 136 -65 1151 -70 983 -4 1068 -1
1220 43 365 106 640 388 743 763 l27 97 0 1230 0 1230 -27 97 c-106 383 -401
678 -772 770 l-81 20 -42 87 c-93 193 -271 320 -486 350 -95 13 -933 13 -1025
0z m1012 -431 c57 -17 119 -82 135 -141 27 -95 -13 -195 -97 -244 l-47 -28
-485 0 -485 0 -47 28 c-84 49 -124 150 -98 245 14 53 83 127 132 141 52 15
941 14 992 -1z m455 -1294 c90 -45 134 -140 110 -238 -16 -67 -85 -138 -151
-154 -67 -17 -1749 -17 -1816 0 -66 16 -135 87 -151 154 -24 98 20 193 110
238 l53 26 896 0 896 0 53 -26z m-41 -836 c66 -16 135 -87 151 -154 24 -98
-20 -193 -110 -238 l-53 -26 -896 0 -896 0 -53 26 c-134 67 -158 244 -45 342
24 22 61 45 82 50 57 15 1760 15 1820 0z m30 -863 c152 -64 172 -273 34 -370
l-44 -30 -906 -3 c-626 -2 -918 0 -944 8 -147 42 -191 250 -76 357 58 54 20
52 996 53 793 0 907 -2 940 -15z"/>
</g>
</svg>
