<?xml version="1.0" standalone="no"?>
<!DOCTYPE svg PUBLIC "-//W3C//DTD SVG 20010904//EN"
 "http://www.w3.org/TR/2001/REC-SVG-20010904/DTD/svg10.dtd">
<svg version="1.0" xmlns="http://www.w3.org/2000/svg"
 width="512.000000pt" height="512.000000pt" viewBox="0 0 512.000000 512.000000"
 preserveAspectRatio="xMidYMid meet">

<g transform="translate(0.000000,512.000000) scale(0.100000,-0.100000)"
fill="#000000" stroke="none">
<path d="M2455 4904 c-461 -50 -844 -311 -1040 -709 -420 -854 195 -1845 1145
-1845 345 0 663 131 905 375 181 182 297 398 352 658 25 116 24 372 0 487 -56
263 -168 472 -352 656 -189 191 -410 308 -673 358 -86 16 -269 27 -337 20z"/>
<path d="M1525 1904 c-220 -39 -413 -140 -571 -298 -162 -162 -260 -352 -299
-580 -57 -331 68 -604 338 -742 145 -74 35 -69 1567 -69 1299 0 1379 1 1439
18 346 98 532 413 466 789 -40 233 -136 419 -300 584 -160 161 -351 260 -579
299 -127 22 -1938 21 -2061 -1z"/>
</g>
</svg>
