<?xml version="1.0" standalone="no"?>
<!DOCTYPE svg PUBLIC "-//W3C//DTD SVG 20010904//EN"
 "http://www.w3.org/TR/2001/REC-SVG-20010904/DTD/svg10.dtd">
<svg version="1.0" xmlns="http://www.w3.org/2000/svg"
 width="512.000000pt" height="512.000000pt" viewBox="0 0 512.000000 512.000000"
 preserveAspectRatio="xMidYMid meet">

<g transform="translate(0.000000,512.000000) scale(0.100000,-0.100000)"
fill="#000000" stroke="none">
<path d="M585 5106 c-141 -34 -266 -142 -314 -271 -32 -85 -271 -1245 -271
-1312 1 -208 109 -452 269 -606 l70 -68 3 -1152 c3 -1059 5 -1157 21 -1212 52
-181 180 -337 339 -414 155 -75 36 -71 1858 -71 1824 0 1706 -4 1860 71 114
57 229 170 282 279 78 158 72 60 76 1346 l3 1150 83 85 c90 91 152 187 197
303 31 81 59 220 59 297 0 60 -243 1230 -271 1305 -49 131 -182 242 -327 273
-79 17 -3868 14 -3937 -3z m599 -673 c-2 -27 -16 -217 -30 -423 -33 -502 -37
-533 -72 -589 -63 -103 -197 -140 -308 -86 -35 17 -66 42 -85 68 -58 80 -59
65 51 591 55 263 100 479 100 482 0 2 79 4 175 4 l174 0 -5 -47z m1054 -456
l-3 -504 -30 -49 c-66 -106 -199 -144 -311 -89 -59 29 -107 84 -123 140 -6 22
2 192 25 517 18 265 33 484 34 486 0 1 92 2 205 2 l206 0 -3 -503z m1056 461
c3 -24 20 -240 36 -480 34 -478 34 -482 -20 -555 -110 -149 -353 -111 -416 66
-10 27 -13 153 -14 524 l0 487 204 0 205 0 5 -42z m986 37 c0 -2 45 -219 100
-481 110 -526 109 -511 51 -591 -95 -131 -308 -120 -395 20 l-29 47 -33 452
c-18 249 -34 477 -37 506 l-4 52 174 0 c95 0 173 -2 173 -5z m-2781 -1650 c62
-45 198 -108 281 -131 102 -29 349 -27 454 4 90 26 198 78 269 128 26 19 52
34 57 34 5 0 32 -16 59 -35 62 -45 198 -108 281 -131 102 -29 349 -27 454 4
90 26 198 78 269 128 26 19 52 34 57 34 5 0 32 -16 59 -35 94 -68 216 -117
374 -150 l27 -5 -2 -1013 -3 -1012 -1575 0 -1575 0 -3 1012 -2 1013 27 5 c156
33 294 89 378 153 22 17 46 31 52 31 7 1 35 -15 62 -34z"/>
<path d="M3062 2429 c-41 -16 -124 -84 -382 -310 -182 -159 -333 -289 -337
-289 -5 0 -46 46 -93 101 -47 55 -103 113 -126 129 -162 113 -385 57 -471
-118 -24 -49 -28 -69 -28 -142 0 -68 5 -94 24 -132 29 -61 430 -524 484 -561
91 -62 215 -72 313 -26 42 20 625 522 898 772 125 115 151 163 151 282 0 67
-4 89 -28 137 -31 62 -84 116 -149 149 -63 33 -185 36 -256 8z"/>
</g>
</svg>
